<?xml version="1.0" encoding="UTF-8" standalone="no"?>
<svg width="45" height="45" version="1.1" xmlns="http://www.w3.org/2000/svg">
  <g transform="rotate(180 22.5 22.5)">
    <path d="M33.027,22.399 L33.027,24.182 L18.369,24.182 Q18.593,26.390 19.961,27.494 Q21.328,28.599 23.778,28.599 Q25.757,28.599 27.831,28.010 Q29.910,27.422 32.102,26.233 L32.102,31.065 Q29.877,31.906 27.651,32.337 Q25.426,32.769 23.201,32.769 Q17.876,32.769 14.922,30.062 Q11.973,27.354 11.973,22.466 Q11.973,17.668 14.871,14.922 Q17.769,12.169 22.853,12.169 Q27.478,12.169 30.252,14.955 Q33.027,17.735 33.027,22.399 Z M26.581,20.314 Q26.581,18.526 25.538,17.433 Q24.496,16.334 22.814,16.334 Q20.992,16.334 19.854,17.360 Q18.716,18.386 18.436,20.314 L26.581,20.314 Z" fill="#000000"/>
  </g>
</svg>
