<?xml version="1.0" encoding="UTF-8" standalone="no"?>
<svg width="45" height="45" version="1.1" xmlns="http://www.w3.org/2000/svg">
  <g transform="rotate(180 22.5 22.5)">
    <path d="M22.839,23.430 Q20.877,23.430 19.885,24.098 Q18.899,24.759 18.899,26.059 Q18.899,27.248 19.695,27.926 Q20.496,28.599 21.914,28.599 Q23.680,28.599 24.891,27.332 Q26.101,26.059 26.101,24.148 L26.101,23.430 L22.839,23.430 Z M32.424,21.065 L32.424,32.259 L26.101,32.259 L26.101,29.350 Q24.840,31.138 23.260,31.956 Q21.684,32.769 19.425,32.769 Q16.376,32.769 14.476,30.992 Q12.576,29.210 12.576,26.373 Q12.576,22.920 14.947,21.312 Q17.323,19.697 22.402,19.697 L26.101,19.697 L26.101,19.210 Q26.101,17.719 24.924,17.029 Q23.753,16.334 21.264,16.334 Q19.252,16.334 17.514,16.738 Q15.782,17.141 14.291,17.948 L14.291,13.167 Q16.309,12.674 18.338,12.422 Q20.373,12.169 22.402,12.169 Q27.710,12.169 30.064,14.260 Q32.424,16.351 32.424,21.065 Z" fill="#000000"/>
  </g>
</svg>
