<?xml version="1.0" encoding="UTF-8" standalone="no"?>
<svg width="45" height="45" version="1.1" xmlns="http://www.w3.org/2000/svg">
  <path d="M22.525,20.555 Q20.636,20.555 19.616,21.592 Q18.601,22.623 18.601,24.552 Q18.601,26.480 19.616,27.506 Q20.636,28.526 22.525,28.526 Q24.403,28.526 25.401,27.506 Q26.399,26.480 26.399,24.552 Q26.399,22.607 25.401,21.581 Q24.403,20.555 22.525,20.555 Z M17.604,18.335 Q15.221,17.612 14.011,16.127 Q12.805,14.636 12.805,12.410 Q12.805,9.103 15.272,7.371 Q17.744,5.633 22.525,5.633 Q27.273,5.633 29.739,7.360 Q32.211,9.086 32.211,12.410 Q32.211,14.636 30.995,16.127 Q29.779,17.612 27.396,18.335 Q30.059,19.070 31.415,20.723 Q32.772,22.377 32.772,24.899 Q32.772,28.789 30.188,30.779 Q27.604,32.769 22.525,32.769 Q17.430,32.769 14.829,30.779 Q12.228,28.789 12.228,24.899 Q12.228,22.377 13.585,20.723 Q14.941,19.070 17.604,18.335 Z M19.179,13.094 Q19.179,14.652 20.048,15.493 Q20.916,16.334 22.525,16.334 Q24.100,16.334 24.958,15.493 Q25.821,14.652 25.821,13.094 Q25.821,11.536 24.958,10.706 Q24.100,9.871 22.525,9.871 Q20.916,9.871 20.048,10.712 Q19.179,11.553 19.179,13.094 Z" fill="#000000"/>
</svg>
