<?xml version="1.0" encoding="UTF-8" standalone="no"?>
<svg width="45" height="45" version="1.1" xmlns="http://www.w3.org/2000/svg">
  <path d="M31.163,13.251 L31.163,18.369 Q29.885,17.494 28.596,17.074 Q27.307,16.654 25.922,16.654 Q23.299,16.654 21.836,18.184 Q20.373,19.714 20.373,22.466 Q20.373,25.219 21.836,26.754 Q23.299,28.285 25.922,28.285 Q27.396,28.285 28.719,27.848 Q30.042,27.405 31.163,26.547 L31.163,31.682 Q29.689,32.225 28.175,32.494 Q26.662,32.769 25.137,32.769 Q19.829,32.769 16.830,30.045 Q13.837,27.321 13.837,22.466 Q13.837,17.612 16.830,14.893 Q19.829,12.169 25.137,12.169 Q26.679,12.169 28.175,12.438 Q29.672,12.707 31.163,13.251 Z" fill="#000000"/>
</svg>
