<?xml version="1.0" encoding="UTF-8" standalone="no"?>
<svg width="45" height="45" version="1.1" xmlns="http://www.w3.org/2000/svg">
  <path d="M26.956,18.156 Q29.602,18.840 30.975,20.533 Q32.354,22.220 32.354,24.832 Q32.354,28.722 29.372,30.746 Q26.396,32.769 20.689,32.769 Q18.672,32.769 16.648,32.444 Q14.624,32.119 12.646,31.469 L12.646,26.267 Q14.540,27.214 16.401,27.696 Q18.268,28.178 20.073,28.178 Q22.752,28.178 24.182,27.253 Q25.611,26.323 25.611,24.585 Q25.611,22.797 24.148,21.878 Q22.685,20.959 19.826,20.959 L17.130,20.959 L17.130,16.614 L19.966,16.614 Q22.511,16.614 23.750,15.818 Q24.994,15.022 24.994,13.391 Q24.994,11.889 23.784,11.065 Q22.578,10.241 20.370,10.241 Q18.744,10.241 17.080,10.611 Q15.415,10.975 13.767,11.693 L13.767,6.754 Q15.762,6.194 17.724,5.914 Q19.686,5.633 21.581,5.633 Q26.676,5.633 29.204,7.309 Q31.738,8.980 31.738,12.343 Q31.738,14.636 30.527,16.099 Q29.322,17.562 26.956,18.156 Z" fill="#000000"/>
</svg>
