<?xml version="1.0" encoding="UTF-8" standalone="no"?>
<svg width="45" height="45" version="1.1" xmlns="http://www.w3.org/2000/svg">
  <path d="M13.688,6.104 L30.454,6.104 L30.454,11.065 L19.070,11.065 L19.070,15.112 Q19.837,14.899 20.617,14.787 Q21.396,14.669 22.237,14.669 Q27.018,14.669 29.680,17.063 Q32.343,19.456 32.343,23.728 Q32.343,27.965 29.445,30.370 Q26.547,32.769 21.396,32.769 Q19.170,32.769 16.990,32.337 Q14.809,31.906 12.657,31.031 L12.657,25.723 Q14.793,26.951 16.710,27.567 Q18.627,28.178 20.331,28.178 Q22.780,28.178 24.187,26.979 Q25.600,25.779 25.600,23.728 Q25.600,21.659 24.187,20.471 Q22.780,19.277 20.331,19.277 Q18.873,19.277 17.225,19.658 Q15.583,20.034 13.688,20.818 L13.688,6.104 Z" fill="#000000"/>
</svg>
