<?xml version="1.0" encoding="UTF-8" standalone="no"?>
<svg width="45" height="45" version="1.1" xmlns="http://www.w3.org/2000/svg">
  <g transform="rotate(180 22.5 22.5)">
    <path d="M26.721,15.510 L26.721,5.000 L33.027,5.000 L33.027,32.259 L26.721,32.259 L26.721,29.423 Q25.426,31.155 23.862,31.962 Q22.304,32.769 20.258,32.769 Q16.631,32.769 14.299,29.888 Q11.973,27.001 11.973,22.466 Q11.973,17.932 14.299,15.050 Q16.631,12.169 20.258,12.169 Q22.287,12.169 23.857,12.982 Q25.426,13.795 26.721,15.510 Z M22.584,28.212 Q24.602,28.212 25.661,26.743 Q26.721,25.269 26.721,22.466 Q26.721,19.664 25.661,18.195 Q24.602,16.721 22.584,16.721 Q20.589,16.721 19.529,18.195 Q18.470,19.664 18.470,22.466 Q18.470,25.269 19.529,26.743 Q20.589,28.212 22.584,28.212 Z" fill="#000000"/>
  </g>
</svg>
