<?xml version="1.0" encoding="UTF-8" standalone="no"?>
<svg width="45" height="45" version="1.1" xmlns="http://www.w3.org/2000/svg">
  <path d="M26.721,28.929 Q25.426,30.645 23.862,31.452 Q22.304,32.259 20.258,32.259 Q16.665,32.259 14.316,29.434 Q11.973,26.603 11.973,22.220 Q11.973,17.825 14.316,15.017 Q16.665,12.203 20.258,12.203 Q22.304,12.203 23.862,13.010 Q25.426,13.812 26.721,15.549 L26.721,12.640 L33.027,12.640 L33.027,30.280 Q33.027,35.011 30.039,37.506 Q27.052,40.000 21.379,40.000 Q19.540,40.000 17.820,39.720 Q16.104,39.439 14.372,38.862 L14.372,33.974 Q16.015,34.922 17.590,35.387 Q19.170,35.852 20.762,35.852 Q23.845,35.852 25.280,34.501 Q26.721,33.150 26.721,30.280 L26.721,28.929 Z M22.584,16.721 Q20.639,16.721 19.552,18.161 Q18.470,19.596 18.470,22.220 Q18.470,24.922 19.518,26.312 Q20.572,27.702 22.584,27.702 Q24.546,27.702 25.633,26.267 Q26.721,24.832 26.721,22.220 Q26.721,19.596 25.633,18.161 Q24.546,16.721 22.584,16.721 Z" fill="#000000"/>
</svg>
