<?xml version="1.0" encoding="UTF-8" standalone="no"?>
<svg width="45" height="45" version="1.1" xmlns="http://www.w3.org/2000/svg">
  <path d="M20.496,27.304 L32.004,27.304 L32.004,32.259 L12.996,32.259 L12.996,27.304 L22.542,18.873 Q23.826,17.719 24.437,16.614 Q25.048,15.510 25.048,14.322 Q25.048,12.483 23.814,11.362 Q22.581,10.241 20.530,10.241 Q18.955,10.241 17.077,10.914 Q15.205,11.586 13.069,12.920 L13.069,7.175 Q15.345,6.424 17.570,6.031 Q19.795,5.633 21.931,5.633 Q26.628,5.633 29.229,7.702 Q31.830,9.765 31.830,13.464 Q31.830,15.600 30.726,17.450 Q29.622,19.294 26.085,22.399 L20.496,27.304 Z" fill="#000000"/>
</svg>
