<?xml version="1.0" encoding="UTF-8" standalone="no"?>
<svg width="45" height="45" version="1.1" xmlns="http://www.w3.org/2000/svg">
  <path d="M22.853,19.350 Q21.082,19.350 20.196,20.499 Q19.311,21.642 19.311,23.941 Q19.311,26.233 20.196,27.382 Q21.082,28.526 22.853,28.526 Q24.636,28.526 25.521,27.382 Q26.407,26.233 26.407,23.941 Q26.407,21.642 25.521,20.499 Q24.636,19.350 22.853,19.350 Z M31.188,6.788 L31.188,11.626 Q29.524,10.835 28.049,10.460 Q26.581,10.084 25.179,10.084 Q22.169,10.084 20.488,11.760 Q18.806,13.430 18.526,16.721 Q19.680,15.863 21.026,15.437 Q22.377,15.006 23.974,15.006 Q27.982,15.006 30.443,17.354 Q32.904,19.697 32.904,23.498 Q32.904,27.702 30.151,30.235 Q27.405,32.769 22.780,32.769 Q17.685,32.769 14.888,29.327 Q12.096,25.880 12.096,19.557 Q12.096,13.077 15.364,9.372 Q18.632,5.667 24.322,5.667 Q26.127,5.667 27.825,5.947 Q29.524,6.228 31.188,6.788 Z" fill="#000000"/>
</svg>
