<?xml version="1.0" encoding="UTF-8" standalone="no"?>
<svg width="45" height="45" version="1.1" xmlns="http://www.w3.org/2000/svg">
  <g transform="rotate(180 22.5 22.5)">
    <path d="M22.410,28.212 Q24.423,28.212 25.482,26.743 Q26.547,25.269 26.547,22.466 Q26.547,19.664 25.482,18.195 Q24.423,16.721 22.410,16.721 Q20.398,16.721 19.316,18.201 Q18.240,19.680 18.240,22.466 Q18.240,25.252 19.316,26.732 Q20.398,28.212 22.410,28.212 Z M18.240,15.510 Q19.540,13.795 21.115,12.982 Q22.691,12.169 24.742,12.169 Q28.369,12.169 30.695,15.050 Q33.027,17.932 33.027,22.466 Q33.027,27.001 30.695,29.888 Q28.369,32.769 24.742,32.769 Q22.691,32.769 21.115,31.956 Q19.540,31.138 18.240,29.423 L18.240,32.259 L11.973,32.259 L11.973,5.000 L18.240,5.000 L18.240,15.510 Z" fill="#000000"/>
  </g>
</svg>
