<?xml version="1.0" encoding="UTF-8" standalone="no"?>
<svg width="45" height="45" version="1.1" xmlns="http://www.w3.org/2000/svg">
  <path d="M32.360,20.314 L32.360,32.259 L26.054,32.259 L26.054,30.314 L26.054,23.150 Q26.054,20.577 25.942,19.613 Q25.830,18.649 25.549,18.195 Q25.179,17.578 24.546,17.237 Q23.918,16.895 23.111,16.895 Q21.149,16.895 20.028,18.414 Q18.907,19.927 18.907,22.607 L18.907,32.259 L12.640,32.259 L12.640,5.000 L18.907,5.000 L18.907,15.510 Q20.325,13.795 21.917,12.982 Q23.515,12.169 25.443,12.169 Q28.840,12.169 30.600,14.254 Q32.360,16.334 32.360,20.314 Z" fill="#000000"/>
</svg>
