<svg xmlns="http://www.w3.org/2000/svg" viewBox="0 0 100 100">
  <g transform="translate(5 5) scale(0.9)">
    <path d="M50 91 C43 91 39 85 34 78 C31 74 28 70 23 66 C17 61 8 55 5 51 C12 48 19 42 25 33 L17 17 C29 20 38 27 45 36 C47 34 49 33 50 33 C51 33 53 34 55 36 C62 27 71 20 83 17 L75 33 C81 42 88 48 95 51 C92 55 83 61 77 66 C72 70 69 74 66 78 C61 85 57 91 50 91 Z" fill="#ffffff" stroke="#000000" stroke-width="5" stroke-linejoin="round"/>
    <path d="M30 58 H31 M69 58 H70" stroke="#000000" stroke-width="6" stroke-linecap="round"/>
    <ellipse cx="50" cy="79" rx="5" ry="4" fill="#000000"/>
  </g>
</svg>
