<svg xmlns="http://www.w3.org/2000/svg" viewBox="0 0 100 100">
  <g transform="translate(-5 -5) scale(1.1)">
    <path d="M30 24 C19 30 12 50 17 72 C20 88 38 82 39 60 L40 34 Z" fill="#686868" stroke="#000000" stroke-width="5" stroke-linejoin="round"/>
    <path d="M70 24 C81 30 88 50 83 72 C80 88 62 82 61 60 L60 34 Z" fill="#686868" stroke="#000000" stroke-width="5" stroke-linejoin="round"/>
    <path d="M24 36 C31 18 69 18 76 36 C82 57 66 82 50 84 C34 82 18 57 24 36 Z" fill="#bdbdbd" stroke="#000000" stroke-width="5" stroke-linejoin="round"/>
    <path d="M40 45 H41 M59 45 H60" stroke="#000000" stroke-width="6" stroke-linecap="round"/>
    <path d="M39 59 C43 53 57 53 61 59 C59 70 54 76 50 76 C46 76 41 70 39 59 Z" fill="#d9d9d9" stroke="#000000" stroke-width="4" stroke-linejoin="round"/>
    <path d="M43 60 C45 55 55 55 57 60 L54 65 H46 Z" fill="#000000" stroke="#000000" stroke-width="2" stroke-linejoin="round"/>
    <path d="M43 72 L50 66 L57 72" fill="none" stroke="#000000" stroke-width="4" stroke-linecap="round" stroke-linejoin="round"/>
  </g>
</svg>
